<svg width="240" height="23" viewBox="0 0 240 23" fill="none" xmlns="http://www.w3.org/2000/svg">
<path d="M27.384 1.2L21.888 18H17.712L14.016 6.624L10.2 18H6.048L0.528 1.2H4.56L8.352 13.008L12.312 1.2H15.912L19.752 13.104L23.664 1.2H27.384ZM40.9776 11.592C40.9776 11.64 40.9536 11.976 40.9056 12.6H31.1376C31.3136 13.4 31.7296 14.032 32.3856 14.496C33.0416 14.96 33.8576 15.192 34.8336 15.192C35.5056 15.192 36.0976 15.096 36.6096 14.904C37.1376 14.696 37.6256 14.376 38.0736 13.944L40.0656 16.104C38.8496 17.496 37.0736 18.192 34.7376 18.192C33.2816 18.192 31.9936 17.912 30.8736 17.352C29.7536 16.776 28.8896 15.984 28.2816 14.976C27.6736 13.968 27.3696 12.824 27.3696 11.544C27.3696 10.28 27.6656 9.144 28.2576 8.136C28.8656 7.112 29.6896 6.32 30.7296 5.76C31.7856 5.184 32.9616 4.896 34.2576 4.896C35.5216 4.896 36.6656 5.168 37.6896 5.712C38.7136 6.256 39.5136 7.04 40.0896 8.064C40.6816 9.072 40.9776 10.248 40.9776 11.592ZM34.2816 7.728C33.4336 7.728 32.7216 7.968 32.1456 8.448C31.5696 8.928 31.2176 9.584 31.0896 10.416H37.4496C37.3216 9.6 36.9696 8.952 36.3936 8.472C35.8176 7.976 35.1136 7.728 34.2816 7.728ZM43.4702 0.191999H47.2142V18H43.4702V0.191999ZM56.9289 18.192C55.5529 18.192 54.3129 17.912 53.2089 17.352C52.1209 16.776 51.2649 15.984 50.6409 14.976C50.0329 13.968 49.7289 12.824 49.7289 11.544C49.7289 10.264 50.0329 9.12 50.6409 8.112C51.2649 7.104 52.1209 6.32 53.2089 5.76C54.3129 5.184 55.5529 4.896 56.9289 4.896C58.2889 4.896 59.4729 5.184 60.4809 5.76C61.5049 6.32 62.2489 7.128 62.7129 8.184L59.8089 9.744C59.1369 8.56 58.1689 7.968 56.9049 7.968C55.9289 7.968 55.1209 8.288 54.4809 8.928C53.8409 9.568 53.5209 10.44 53.5209 11.544C53.5209 12.648 53.8409 13.52 54.4809 14.16C55.1209 14.8 55.9289 15.12 56.9049 15.12C58.1849 15.12 59.1529 14.528 59.8089 13.344L62.7129 14.928C62.2489 15.952 61.5049 16.752 60.4809 17.328C59.4729 17.904 58.2889 18.192 56.9289 18.192ZM70.8486 18.192C69.4886 18.192 68.2646 17.912 67.1766 17.352C66.1046 16.776 65.2646 15.984 64.6566 14.976C64.0486 13.968 63.7446 12.824 63.7446 11.544C63.7446 10.264 64.0486 9.12 64.6566 8.112C65.2646 7.104 66.1046 6.32 67.1766 5.76C68.2646 5.184 69.4886 4.896 70.8486 4.896C72.2086 4.896 73.4246 5.184 74.4966 5.76C75.5686 6.32 76.4086 7.104 77.0166 8.112C77.6246 9.12 77.9286 10.264 77.9286 11.544C77.9286 12.824 77.6246 13.968 77.0166 14.976C76.4086 15.984 75.5686 16.776 74.4966 17.352C73.4246 17.912 72.2086 18.192 70.8486 18.192ZM70.8486 15.12C71.8086 15.12 72.5926 14.8 73.2006 14.16C73.8246 13.504 74.1366 12.632 74.1366 11.544C74.1366 10.456 73.8246 9.592 73.2006 8.952C72.5926 8.296 71.8086 7.968 70.8486 7.968C69.8886 7.968 69.0966 8.296 68.4726 8.952C67.8486 9.592 67.5366 10.456 67.5366 11.544C67.5366 12.632 67.8486 13.504 68.4726 14.16C69.0966 14.8 69.8886 15.12 70.8486 15.12ZM96.9671 4.896C98.5831 4.896 99.8631 5.376 100.807 6.336C101.767 7.28 102.247 8.704 102.247 10.608V18H98.5031V11.184C98.5031 10.16 98.2871 9.4 97.8551 8.904C97.4391 8.392 96.8391 8.136 96.0551 8.136C95.1751 8.136 94.4791 8.424 93.9671 9C93.4551 9.56 93.1991 10.4 93.1991 11.52V18H89.4551V11.184C89.4551 9.152 88.6391 8.136 87.0071 8.136C86.1431 8.136 85.4551 8.424 84.9431 9C84.4311 9.56 84.1751 10.4 84.1751 11.52V18H80.4311V5.088H84.0071V6.576C84.4871 6.032 85.0711 5.616 85.7591 5.328C86.4631 5.04 87.2311 4.896 88.0631 4.896C88.9751 4.896 89.7991 5.08 90.5351 5.448C91.2711 5.8 91.8631 6.32 92.3111 7.008C92.8391 6.336 93.5031 5.816 94.3031 5.448C95.1191 5.08 96.0071 4.896 96.9671 4.896ZM118.392 11.592C118.392 11.64 118.368 11.976 118.32 12.6H108.552C108.728 13.4 109.144 14.032 109.8 14.496C110.456 14.96 111.272 15.192 112.248 15.192C112.92 15.192 113.512 15.096 114.024 14.904C114.552 14.696 115.04 14.376 115.488 13.944L117.48 16.104C116.264 17.496 114.488 18.192 112.152 18.192C110.696 18.192 109.408 17.912 108.288 17.352C107.168 16.776 106.304 15.984 105.696 14.976C105.088 13.968 104.784 12.824 104.784 11.544C104.784 10.28 105.08 9.144 105.672 8.136C106.28 7.112 107.104 6.32 108.144 5.76C109.2 5.184 110.376 4.896 111.672 4.896C112.936 4.896 114.08 5.168 115.104 5.712C116.128 6.256 116.928 7.04 117.504 8.064C118.096 9.072 118.392 10.248 118.392 11.592ZM111.696 7.728C110.848 7.728 110.136 7.968 109.56 8.448C108.984 8.928 108.632 9.584 108.504 10.416H114.864C114.736 9.6 114.384 8.952 113.808 8.472C113.232 7.976 112.528 7.728 111.696 7.728ZM136.009 17.376C135.641 17.648 135.185 17.856 134.641 18C134.113 18.128 133.553 18.192 132.961 18.192C131.425 18.192 130.233 17.8 129.385 17.016C128.553 16.232 128.137 15.08 128.137 13.56V8.256H126.145V5.376H128.137V2.232H131.881V5.376H135.097V8.256H131.881V13.512C131.881 14.056 132.017 14.48 132.289 14.784C132.577 15.072 132.977 15.216 133.489 15.216C134.081 15.216 134.585 15.056 135.001 14.736L136.009 17.376ZM143.856 18.192C142.496 18.192 141.272 17.912 140.184 17.352C139.112 16.776 138.272 15.984 137.664 14.976C137.056 13.968 136.752 12.824 136.752 11.544C136.752 10.264 137.056 9.12 137.664 8.112C138.272 7.104 139.112 6.32 140.184 5.76C141.272 5.184 142.496 4.896 143.856 4.896C145.216 4.896 146.432 5.184 147.504 5.76C148.576 6.32 149.416 7.104 150.024 8.112C150.632 9.12 150.936 10.264 150.936 11.544C150.936 12.824 150.632 13.968 150.024 14.976C149.416 15.984 148.576 16.776 147.504 17.352C146.432 17.912 145.216 18.192 143.856 18.192ZM143.856 15.12C144.816 15.12 145.6 14.8 146.208 14.16C146.832 13.504 147.144 12.632 147.144 11.544C147.144 10.456 146.832 9.592 146.208 8.952C145.6 8.296 144.816 7.968 143.856 7.968C142.896 7.968 142.104 8.296 141.48 8.952C140.856 9.592 140.544 10.456 140.544 11.544C140.544 12.632 140.856 13.504 141.48 14.16C142.104 14.8 142.896 15.12 143.856 15.12ZM196.297 9.336H199.849V16.152C198.937 16.84 197.881 17.368 196.681 17.736C195.481 18.104 194.273 18.288 193.057 18.288C191.313 18.288 189.745 17.92 188.353 17.184C186.961 16.432 185.865 15.4 185.065 14.088C184.281 12.76 183.889 11.264 183.889 9.6C183.889 7.936 184.281 6.448 185.065 5.136C185.865 3.808 186.969 2.776 188.377 2.04C189.785 1.288 191.369 0.912 193.129 0.912C194.601 0.912 195.937 1.16 197.137 1.656C198.337 2.152 199.345 2.872 200.161 3.816L197.665 6.12C196.465 4.856 195.017 4.224 193.321 4.224C192.249 4.224 191.297 4.448 190.465 4.896C189.633 5.344 188.985 5.976 188.521 6.792C188.057 7.608 187.825 8.544 187.825 9.6C187.825 10.64 188.057 11.568 188.521 12.384C188.985 13.2 189.625 13.84 190.441 14.304C191.273 14.752 192.217 14.976 193.273 14.976C194.393 14.976 195.401 14.736 196.297 14.256V9.336ZM216.013 5.088L210.181 18.792C209.589 20.28 208.853 21.328 207.973 21.936C207.109 22.544 206.061 22.848 204.829 22.848C204.157 22.848 203.493 22.744 202.837 22.536C202.181 22.328 201.645 22.04 201.229 21.672L202.597 19.008C202.885 19.264 203.213 19.464 203.581 19.608C203.965 19.752 204.341 19.824 204.709 19.824C205.221 19.824 205.637 19.696 205.957 19.44C206.277 19.2 206.565 18.792 206.821 18.216L206.869 18.096L201.277 5.088H205.141L208.765 13.848L212.413 5.088H216.013ZM234.077 4.896C235.693 4.896 236.973 5.376 237.917 6.336C238.877 7.28 239.357 8.704 239.357 10.608V18H235.613V11.184C235.613 10.16 235.397 9.4 234.965 8.904C234.549 8.392 233.949 8.136 233.165 8.136C232.285 8.136 231.589 8.424 231.077 9C230.565 9.56 230.309 10.4 230.309 11.52V18H226.565V11.184C226.565 9.152 225.749 8.136 224.117 8.136C223.253 8.136 222.565 8.424 222.053 9C221.541 9.56 221.285 10.4 221.285 11.52V18H217.541V5.088H221.117V6.576C221.597 6.032 222.181 5.616 222.868 5.328C223.573 5.04 224.341 4.896 225.173 4.896C226.085 4.896 226.909 5.08 227.645 5.448C228.381 5.8 228.973 6.32 229.421 7.008C229.949 6.336 230.613 5.816 231.413 5.448C232.229 5.08 233.117 4.896 234.077 4.896Z" fill="white" fill-opacity="0.75"/>
<path d="M178.001 18L174.761 13.32H174.569H171.185V18H167.297V1.2H174.569C176.057 1.2 177.345 1.448 178.433 1.944C179.537 2.44 180.385 3.144 180.977 4.056C181.569 4.968 181.865 6.048 181.865 7.296C181.865 8.544 181.561 9.624 180.953 10.536C180.361 11.432 179.513 12.12 178.409 12.6L182.177 18H178.001ZM177.929 7.296C177.929 6.352 177.625 5.632 177.017 5.136C176.409 4.624 175.521 4.368 174.353 4.368H171.185V10.224H174.353C175.521 10.224 176.409 9.968 177.017 9.456C177.625 8.944 177.929 8.224 177.929 7.296Z" fill="#E74C3C"/>
</svg>
